<?xml version='1.0' encoding='iso-8859-1'?>
<svg version="1.1" xmlns="http://www.w3.org/2000/svg" viewBox="0 0 267.978 267.978" xmlns:xlink="http://www.w3.org/1999/xlink" enable-background="new 0 0 267.978 267.978">
  <g>
    <path d="m228.512,75.312c0.07-0.748 0.313-1.479 0.313-2.227 0-5.22 0-10.441-3.48-15.661 1.74-5.22 3.48-10.441 3.48-15.661 0-22.621-22.621-40.023-48.723-40.023-12.181,0-22.621,3.48-31.322,8.701-15.661-12.181-41.763-12.181-59.164-1.74-8.7-5.221-19.141-8.701-29.582-8.701-26.102,0-48.723,17.401-48.723,40.023 0,5.22 0,10.441 3.48,15.661-1.74,5.22-3.48,10.441-3.48,15.661 0,15.591 10.858,28.555 26.102,35.203v133.589c0,15.661 12.181,27.842 27.842,27.842h109.627c15.661,0 27.842-13.921 27.842-27.842v-20.882h20.882c19.141,0 33.062-15.661 33.062-33.062v-78.305c-0.001-17.315-12.843-30.244-28.156-32.576zm-199.801-7.448c-1.42109e-14-3.48 1.74-6.96 3.48-10.441s1.74-6.96 0-10.441-3.48-6.96-3.48-10.441c0-12.181 13.921-22.621 31.322-22.621 8.701,0 17.401,3.48 22.621,8.701 1.74,3.48 6.96,3.48 10.441,0 13.921-10.441 36.543-8.701 48.723,1.74 3.48,3.48 8.701,3.48 12.181,0 5.22-5.22 15.661-8.701 24.362-8.701 17.401,0 31.322,10.441 31.322,22.621 0,3.48-1.74,6.96-3.48,10.441-1.74,3.48-1.74,6.96 0,10.441 1.74,3.48 3.48,6.96 3.48,10.441 0,12.181-13.921,22.621-31.322,22.621-8.701,0-19.141-3.48-24.362-8.701 0-1.74-3.48-1.74-5.22-1.74-1.74,0-3.48,0-6.96-1.74-12.181,12.181-36.543,12.181-48.723,1.74-1.74-3.48-6.96-3.48-10.441,0-5.22,5.22-13.921,8.701-22.621,8.701-17.401-1.42109e-14-31.323-10.44-31.323-22.621zm146.17,182.713h-8.701v-114.848c0-5.22-3.48-8.701-8.701-8.701-5.22,0-8.701,3.48-8.701,8.701v114.848h-20.882v-114.848c0-5.22-3.48-8.701-8.701-8.701-5.22,0-8.701,3.48-8.701,8.701v114.848h-19.139v-114.848c0-5.22-3.48-8.701-8.701-8.701-5.22,0-8.701,3.48-8.701,8.701v114.848h-8.701c-5.22,0-10.441-5.22-10.441-10.441v-129.204c1.74,0.157 3.445,0.435 5.22,0.435 10.441,0 20.882-3.48 29.582-8.701 17.401,10.441 41.763,10.441 59.164-1.74 8.701,5.22 20.882,8.701 31.322,8.701 1.775,0 3.48-0.278 5.22-0.435v130.944c0.003,5.221-5.217,10.441-10.438,10.441zm66.125-64.385c0,8.701-6.96,15.661-15.661,15.661h-22.621v-96.942c7.326-3.08 13.625-7.43 18.184-12.686h4.437c8.701,0 15.661,6.96 15.661,15.661v78.306z"/>
  </g>
</svg>
