<?xml version="1.0" ?><svg viewBox="0 0 512 512" xmlns="http://www.w3.org/2000/svg"><title/><g id="French_fries"><path d="M288.8126,361.6717c-10.2782-5.5042-23.4442-8.8085-37.7993-8.8085-32.8812,0-59.5445,17.3367-59.5445,38.7337,0,17.2007,17.2348,31.7853,41.0864,36.8394a89.2137,89.2137,0,0,0,18.4581,1.8942c32.89,0,59.5529-17.3367,59.5529-38.7336C310.5662,379.535,302.0974,368.7729,288.8126,361.6717Z"/><path d="M450.93,88.61q-11.9248-7.935-23.85-15.88a7.7008,7.7008,0,0,0-5.09-1.25h-.06l-19.26,2.09a7.7158,7.7158,0,0,0-6.39,3.54q-8.2467,12.7982-15.7038,26.0177Q367.998,96.5784,355.42,90.02a7.6993,7.6993,0,0,0-5.19-.71h-.01a.0759.0759,0,0,1-.04.01l-4.77,1.04q5.31-15.795,11.74-31.26a7.7171,7.7171,0,0,0-4.04-10.06q-13.14-5.715-26.27-11.43a7.6767,7.6767,0,0,0-5.24-.33h-.01c-.01,0-.02.01-.04.01l-18.57,5.45a7.7125,7.7125,0,0,0-5.69,4.62q-9.2831,22.24-16.4367,45.15Q278.0855,69.0031,274.32,45.6a7.0952,7.0952,0,0,0-4.31-5.51q-7.29-4.5-14.6-8.84a6.3766,6.3766,0,0,0-4.59-.94Q232.1,33.655,213.37,37a6.6591,6.6591,0,0,0-5.35,7.7q3.8935,22.62,6.7881,45.3676Q207.9227,68.437,199.15,47.36a7.72,7.72,0,0,0-5.78-4.63c.04.01.09.01.13.02l-18.61-5.46c-.02,0-.03-.01-.04-.01h-.01a7.6766,7.6766,0,0,0-5.24.33q-13.125,5.715-26.27,11.43a7.717,7.717,0,0,0-4.04,10.06q6.1215,14.6969,11.2088,29.7239s-1.39-.129-2.6938-.2511a11.08,11.08,0,0,0-4.8106.6094,16.7149,16.7149,0,0,0-1.9744.8378q-12.576,6.548-25.1524,13.1058Q108.4135,89.9129,100.16,77.11a7.6851,7.6851,0,0,0-6.47-3.53c.02,0,.05-.01.08-.01L74.51,71.48h-.06a7.7,7.7,0,0,0-5.09,1.25Q57.4349,80.665,45.51,88.61A7.7281,7.7281,0,0,0,43.3,99.22a477.7673,477.7673,0,0,1,42.52,82.9,29.9038,29.9038,0,0,0-5.29,16.49,34.0118,34.0118,0,0,0,.69,6.53c.1655.6352.3568,1.37.5719,2.1673L126.46,446.1782c4.1,27.4635,57.9711,49.2039,123.8451,49.2039,65.8836,0,119.7544-21.74,123.8547-49.2039l44.8218-239.6921q.1918-.538.3284-1.0361a35.1245,35.1245,0,0,0,.74-6.84c0-7.03-2.79-13.8-7.97-20.15a478.5127,478.5127,0,0,1,41.06-79.24A7.7282,7.7282,0,0,0,450.93,88.61ZM283.11,113.34a510.3506,510.3506,0,0,1,21.46-62.65q12.8847,5.595,25.77,11.21a485.3722,485.3722,0,0,0-26.11,83.4c.9919-2.587-10.8613,30.0739-16.148,49.457.0244-.1014.0406-.2071.068-.307q-1.0453-40.6823-5.0592-81.2251C283.0957,113.2651,283.106,113.2987,283.11,113.34Zm10.3921,92.1635A515.5617,515.5617,0,0,1,332.2938,101.5q6.2,3.2281,12.4,6.461,6.2658,3.2661,12.5277,6.5277A484.18,484.18,0,0,0,308.1421,284.103c-7.705,6.1813-17.7942,11.0506-29.3632,14.0146h0A515.6149,515.6149,0,0,1,293.5021,205.5035ZM266.58,47.87A1109.6508,1109.6508,0,0,1,280.5,226.32c.016-.0776.0411-.15.0588-.227a522.7669,522.7669,0,0,0-9.9058,73.7464h0A108.2416,108.2416,0,0,1,252.6,301.3423c-3.4438,0-6.8263-.1676-10.14-.474A1075.3711,1075.3711,0,0,0,231.82,53.68Q249.19,50.77,266.58,47.87Zm-74.71,2.82a514.0627,514.0627,0,0,1,28.17,90.2646,1052.6512,1052.6512,0,0,1,2.3872,123.972,522.7974,522.7974,0,0,0-30.23-119.62A485.0576,485.0576,0,0,0,166.1,61.9Q178.97,56.29,191.87,50.69Zm-40.1553,57.2875q6.2115-3.2379,12.4314-6.4776a515.6824,515.6824,0,0,1,38.5664,103.1273,515.8571,515.8571,0,0,1,14.7589,90.718c-14.2972-5.26-30.7622-22.4662-30.3523-21.8579a485.2857,485.2857,0,0,0-47.9-158.9987Q145.4669,111.2354,151.7147,107.9775ZM70.19,97.26q11.7-7.8,23.4-15.58,9.5818,14.89,18.1346,30.4407a7.8158,7.8158,0,0,0,.5553,1.4593,478.4928,478.4928,0,0,1,44.7809,139.3247,241.536,241.536,0,0,1-23.3624-7.201A484.8283,484.8283,0,0,0,105.95,163.69,487.2843,487.2843,0,0,0,70.19,97.26ZM361.3813,443.7886q-.0437.2343-.0788.47c-1.2225,8.1883-12.994,17.6708-30.7207,24.7468-21.61,8.6262-50.1192,13.3768-80.2766,13.3768-30.1532,0-58.66-4.7506-80.268-13.3767-17.726-7.0762-29.4972-16.5587-30.72-24.7469q-.0351-.2357-.0789-.47L102.1361,245.3768c15.8451,9.2841,37.0568,17.0393,61.3754,22.4368a14.6248,14.6248,0,0,1,9.74,7.7483c6.0294,11.7182,16.9555,21.5969,31.5969,28.5678,14.0325,6.6811,30.5447,10.2126,47.7516,10.2126,17.4335,0,34.1247-3.616,48.2692-10.457,14.8019-7.1589,25.7151-17.2779,31.56-29.263a14.6575,14.6575,0,0,1,9.6971-7.9682c22.1885-5.309,41.61-12.6469,56.3576-21.28Zm.9822-196.466c-7.2048,2.4649-14.9492,4.6952-23.154,6.6617A478.5078,478.5078,0,0,1,384.16,113.58a7.7881,7.7881,0,0,0,.552-1.4456q8.5459-15.5368,18.1408-30.4548,11.6934,7.781,23.3949,15.5769A484.7969,484.7969,0,0,0,362.3635,247.3226Z"/></g></svg>